<?xml version="1.0" standalone="no"?>
<!DOCTYPE svg PUBLIC "-//W3C//DTD SVG 20010904//EN"
 "http://www.w3.org/TR/2001/REC-SVG-20010904/DTD/svg10.dtd">
<svg version="1.0" xmlns="http://www.w3.org/2000/svg"
 width="865.000000pt" height="865.000000pt" viewBox="0 0 865.000000 865.000000"
 preserveAspectRatio="xMidYMid meet">
<metadata>
Created by potrace 1.14, written by Peter Selinger 2001-2017
</metadata>
<g transform="translate(0.000000,865.000000) scale(0.100000,-0.100000)"
fill="#000000" stroke="none">
<path d="M679 8073 c0 -58 -2 -639 -14 -4705 -5 -1858 -4 -2138 9 -2145 8 -4
32 -24 53 -43 21 -20 112 -100 203 -180 156 -136 200 -175 415 -365 50 -44
121 -107 159 -140 38 -33 90 -78 115 -101 276 -246 325 -285 338 -269 6 10 27
34 45 54 18 20 80 90 138 156 58 66 107 122 110 125 3 3 53 59 110 125 58 66
110 125 116 130 6 6 55 62 110 125 54 63 108 124 119 136 11 11 33 36 49 55
16 19 61 70 100 114 39 44 85 95 101 114 17 18 35 39 40 45 6 6 37 43 70 81
33 39 63 72 66 75 3 3 61 68 129 145 124 142 237 269 255 289 6 6 50 57 99
113 l89 102 66 -47 c37 -26 167 -119 289 -207 122 -88 251 -180 286 -205 35
-25 110 -79 167 -120 57 -41 113 -82 125 -90 38 -25 238 -169 249 -178 11 -9
149 -109 510 -367 138 -99 318 -228 400 -288 243 -174 403 -289 408 -290 4 -2
400 339 451 387 6 6 101 90 211 186 263 230 253 222 305 269 25 22 48 41 53
41 15 0 6 31 -17 58 -26 29 -488 583 -539 646 -18 22 -37 44 -42 50 -6 6 -134
160 -285 341 -151 182 -277 332 -280 335 -3 3 -50 59 -105 125 -55 66 -107
129 -117 140 -87 103 -188 228 -188 233 0 4 60 50 132 102 489 354 769 572
907 705 255 246 475 582 596 909 151 409 178 874 75 1270 -73 278 -231 584
-410 797 -328 387 -730 592 -1165 591 -243 0 -450 -49 -670 -159 -57 -29 -581
-350 -715 -438 -19 -13 -198 -125 -398 -249 l-363 -226 -281 161 c-154 88
-295 169 -312 180 -17 10 -37 22 -45 26 -19 8 -351 200 -371 213 -8 6 -22 13
-30 17 -8 4 -37 20 -65 36 -44 26 -463 268 -547 316 -35 19 -608 349 -668 384
-19 11 -62 35 -95 54 -33 19 -67 38 -75 43 -8 6 -100 59 -205 119 -104 59
-207 118 -227 131 l-38 22 -1 -59z m5173 -1968 c197 -41 375 -165 471 -326
150 -254 113 -588 -90 -805 -26 -29 -241 -197 -478 -375 -236 -177 -538 -404
-670 -504 -132 -100 -360 -272 -507 -383 l-267 -202 -238 187 c-131 103 -265
207 -298 232 -33 25 -69 54 -80 64 -48 44 -38 50 -225 -127 -100 -95 -231
-218 -390 -366 -79 -74 -183 -171 -230 -216 -47 -44 -116 -109 -154 -145 -37
-35 -90 -84 -116 -109 -26 -25 -100 -94 -165 -155 -65 -60 -135 -126 -155
-145 -20 -19 -92 -87 -160 -150 -68 -63 -130 -123 -139 -132 -15 -15 -16 131
-14 1719 0 954 3 1736 5 1738 1 2 120 -64 263 -147 143 -82 278 -160 300 -173
22 -12 111 -63 199 -114 87 -50 160 -91 163 -91 2 0 16 -8 31 -19 15 -10 185
-109 379 -220 316 -182 355 -201 374 -190 13 6 70 42 128 79 58 36 248 156
421 265 173 109 338 212 365 230 119 76 783 493 815 511 129 73 313 101 462
69z"/>
</g>
</svg>
